<svg width="512" height="512" viewBox="0 0 512 512" fill="none" xmlns="http://www.w3.org/2000/svg">
  <rect width="512" height="512" rx="64" fill="#000000"/>
  <rect x="32" y="32" width="448" height="448" rx="32" fill="#ffffff"/>
  
  <!-- Phone icon -->
  <rect x="128" y="96" width="80" height="128" rx="12" stroke="#000000" stroke-width="8" fill="none"/>
  <circle cx="168" cy="208" r="6" fill="#000000"/>
  
  <!-- Stock/inventory boxes -->
  <rect x="256" y="112" width="56" height="40" rx="6" fill="#000000"/>
  <rect x="320" y="112" width="56" height="40" rx="6" fill="#666666"/>
  <rect x="256" y="160" width="56" height="40" rx="6" fill="#666666"/>
  <rect x="320" y="160" width="56" height="40" rx="6" fill="#000000"/>
  
  <!-- Search icon -->
  <circle cx="168" cy="320" r="32" stroke="#000000" stroke-width="8" fill="none"/>
  <line x1="192" y1="344" x2="216" y2="368" stroke="#000000" stroke-width="8" stroke-linecap="round"/>
  
  <!-- Plus icon for stock management -->
  <circle cx="320" cy="320" r="40" fill="#000000"/>
  <line x1="296" y1="320" x2="344" y2="320" stroke="#ffffff" stroke-width="6" stroke-linecap="round"/>
  <line x1="320" y1="296" x2="320" y2="344" stroke="#ffffff" stroke-width="6" stroke-linecap="round"/>
  
  <!-- Brand text -->
  <text x="256" y="420" font-family="Arial, sans-serif" font-size="48" font-weight="bold" fill="#000000">DK</text>
  <text x="128" y="460" font-family="Arial, sans-serif" font-size="24" fill="#666666">Stock Buddy</text>
</svg>